<svg id="Layer_1" data-name="Layer 1" xmlns="http://www.w3.org/2000/svg" viewBox="0 0 194.09 137.72"><defs><style>.cls-1{fill:#fff;}</style></defs><title>zachary-tiki-wordmark</title><path class="cls-1" d="M97.11,92.84a29.81,29.81,0,0,0,14.38-.18c-.68,1.45-1.31,2.77-1.87,4.14a53,53,0,0,0-3.49,16c0,.44-.08.87.5.89a7.75,7.75,0,0,0,4.24-.73c2.28-1.28,3.27-3.57,3.85-6.1a31,31,0,0,0,0-12.93c0-.19-.09-.37-.11-.55a1.18,1.18,0,0,1,0-.28,132,132,0,0,0,14.92-2.61c-1,1.71-2.29,3.55-3.35,5.39a35.34,35.34,0,0,0-3.49,8.59c-1.43,5.14-3.59,8.89-8.83,10.77l2.09.8c2.86,1.08,4.39,3.49,4.93,6.88.35,2.18.51,4.38.89,6.55.61,3.56,2.32,7.33,3.85,10.87.13.29.26.59.38.89a6.88,6.88,0,0,1,.42,1.06c-4.42-1.77-9.71-4.16-14.28-3.89a2.43,2.43,0,0,1,.08-.5c1.65-3.67,2.09-8.22,1.76-13.1a11.73,11.73,0,0,0-1.43-5.16,3.8,3.8,0,0,0-2.72-2c-.94-.14-1.91-.13-2.86-.23-.7-.08-1,.18-.94,1,.24,3.14.42,6.25.84,9.22a37.83,37.83,0,0,0,2.79,10.06,4.94,4.94,0,0,1,.17.58,29.47,29.47,0,0,0-12.78-.2C101.81,125.21,103.42,105.9,97.11,92.84ZM74.78,140.36a55.22,55.22,0,0,1-2.12-6.44C70.81,125.7,70,116.59,69,107.64c-.18-1.85-.21-3.67-.24-5.47,0-.23.34-.56.54-.52a13.39,13.39,0,0,1,8,4.6c.26.32.55.61,1,1.11-1-5.55-1.5-10.7-.84-15.15-9-.19-17.76-2.3-27.64-8.95a143.08,143.08,0,0,1,4.7,22.31c1.48-3.84,4.34-5,8.09-4.76.43,1.86.85,3.53,1.16,5.19a79.75,79.75,0,0,1,1,21.48c-.35,5-.92,9.92-1.84,15.61-.16,1-.35,2-.54,3.37a18.4,18.4,0,0,1,12.63-5.28C74.94,140.8,74.86,140.58,74.78,140.36Zm18.9-47.27c-4.51.35-9.23.57-13.77-1,7.59,15,7.29,31.94,2.89,47.17,3.92-1.65,7.79-1.66,11.77-1.4C89.26,125.86,88.63,105.2,93.68,93.09Zm34.66,49.81c4,.25,8.18.44,11.91,3.1-5.32-23.91-4.47-37.37,7.78-61.23-5.14,2.63-10,4.72-14.45,4.87C135.2,106.46,132.11,126.32,128.34,142.9Z" transform="translate(-1.91 -8.74)"/><path class="cls-1" d="M83.39,9.18A19.73,19.73,0,0,0,95.12,9c-.54,2.78-1.09,5.33-1.51,7.9A131.08,131.08,0,0,0,92.05,34.8c0,.74.17.88.62,1a24.45,24.45,0,0,0,7.73-.1c.61-.1.63-.51.62-1.2A94,94,0,0,0,97.61,9.7c-.06-.21-.11-.44-.23-1a19.24,19.24,0,0,0,11.52.38c-3.79,20.47-4,39.05.25,56.84a23.32,23.32,0,0,0-11.76-.25c.8-3.77,1.7-7.52,2.39-11.4A89.65,89.65,0,0,0,101,42.16a17.59,17.59,0,0,0-8.5,0c-.17,0-.42.62-.41.93.3,7.84.87,15.35,3.17,22.18a2.8,2.8,0,0,1,.09.53,23.81,23.81,0,0,0-12.06.64C87.82,48.39,88.81,29.78,83.39,9.18ZM152.9,73c-2.77-7.15-3.42-14.56-3.36-22.34,0-.77.17-1,.7-.86,2,.43,3.35,2.08,3.69,5.07.26,2.32.14,4.64.24,6.94s.14,4.52.45,6.74a10.63,10.63,0,0,0,2.68,5.92A9.37,9.37,0,0,0,165,77.76c.53,0,.68-.3.47-1.13a37.92,37.92,0,0,1-1-10.07c0-1.52.11-3,.18-4.67l-.83.26c-2.37.74-4.31-.92-5.12-4.57a22.91,22.91,0,0,0-2-6.46s0-.14,0-.31l1.44-.22c3.32-.54,5.78-2.85,7-7.63a46.06,46.06,0,0,0,.71-18.63c-.66-4.27-2.36-7.39-4.95-9.2a10.9,10.9,0,0,0-6.78-1.78,39.72,39.72,0,0,1-9.3-.57c-.61-.14-1.2-.37-1.88-.57.56,2,1.12,3.75,1.52,5.58A79.58,79.58,0,0,1,146.06,37c-.14,4.64-.46,9.19-.86,13.59a75.39,75.39,0,0,1-3.82,19.08c-.09.25-.13.54-.23,1a24.05,24.05,0,0,1,12,3.29C153,73.37,153,73.19,152.9,73Zm-2.81-32.31a49.38,49.38,0,0,1,1.27-7.26c1.23-4.59,4.28-5.42,7-4.25,1.64.69,2.88,2.05,3.19,4.81.61,5.49-1.48,10-4.9,10.55a32.72,32.72,0,0,1-4.75,0C149.85,43.82,149.76,43.81,150.09,40.72ZM121.5,52.81a15.6,15.6,0,0,1,7,1c.17.06.4.7.37,1-.26,2.41-.5,4.81-.86,7.14-.3,2-.77,3.81-1.13,5.56,4,.59,7.93,1.31,12,2.18-.2-.63-.41-1.29-.61-2s-.39-1.34-.56-2a149.05,149.05,0,0,1-5.12-36.48,62.21,62.21,0,0,1,1.05-12.77c.35-1.75.84-3.45,1.31-5.4A40.27,40.27,0,0,1,117.7,9.38c.14.61.23,1,.3,1.37.32,1.57.71,3.12.92,4.72a67.7,67.7,0,0,1,.16,14.5,126.47,126.47,0,0,1-2.26,15.15,144.39,144.39,0,0,1-5.83,20c-.09.25-.15.52-.27.93a29.51,29.51,0,0,1,12,1.13,61.35,61.35,0,0,1-1.41-14.26C121.41,52.86,121.45,52.81,121.5,52.81Zm6.8-18.64a92.6,92.6,0,0,1,.95,12.36c0,.75-.21.89-.62.95a15.8,15.8,0,0,1-6.72-.78,1,1,0,0,1-.39-.77c.53-7,1.46-14.12,4.36-20.4.05-.09.09-.19.22-.47A48.87,48.87,0,0,1,128.3,34.17Zm-88.59,28c-.13-1.7-.15-1.8,1.06-2.16,1.95-.59,3.91-1,5.85-1.45.67-.16.92.13.85,1.09-.21,3-.39,6-.69,8.91-.17,1.56-.51,3.11-.76,4.51,4.11-1.16,8.14-2.17,12.16-3-.47-1.27-1-2.54-1.43-3.86A158.48,158.48,0,0,1,49,33.38a67.32,67.32,0,0,1-.33-15c.17-1.62.47-3.22.74-5.07a42.39,42.39,0,0,1-17.51,3.82c.22.66.37,1.05.48,1.47.68,2.48,1.49,4.87,2,7.39a77.28,77.28,0,0,1,1,16.77A123.52,123.52,0,0,1,31,72.15c-.61,2.21-1.26,4.4-1.89,6.45,4.26-1.57,8.41-3,12.57-4.26A58.44,58.44,0,0,1,39.71,62.17Zm4.4-26.58a67.14,67.14,0,0,1,3,15.26c.05.56.08,1-.39,1.22a17.09,17.09,0,0,1-7,2c-.15,0-.42-.6-.41-.94.19-4.13.29-8.32.58-12.57A40.12,40.12,0,0,1,42,30.29C42.77,32.2,43.51,33.84,44.11,35.59ZM170.88,17.82c0,.33,0,.51,0,.68a58.29,58.29,0,0,1,.94,17c-.22,2.83-.54,5.6-.69,8.38A20.93,20.93,0,0,0,172.62,53c2.26,5.53,7.12,7.86,10.54,6.36a16.07,16.07,0,0,0,3.13-2.48,1.88,1.88,0,0,1,0,.45c-.48,2.77-.8,5.6-1.38,8.16-.49,2.15-1.58,3.48-3.15,3.93-2.12.62-4.29-.67-6.42-1.78a12,12,0,0,1-4.9-4.53c0,.36,0,.51,0,.67a4.12,4.12,0,0,0,0,.6,28.1,28.1,0,0,1-.83,11.43c-.4,1.33-.41,1.35.71,2.25,3.91,3.14,8,5.37,12.16,5.88s6.64-1.7,7.64-7a62.41,62.41,0,0,0,.55-13A114.78,114.78,0,0,1,193,39.83c.8-4.42,1.95-8.74,3-13.39a21.82,21.82,0,0,1-11.08-4,2.09,2.09,0,0,0,0,.47c.06.35.14.7.22,1.05A57,57,0,0,1,186,43.68,16.57,16.57,0,0,1,184,50.56c-1.95,3-5,1.66-6.12-2.74a18,18,0,0,1-.51-3.67,49.82,49.82,0,0,1,3.51-19.42c.38-1,.85-2,1.37-3.19A29.26,29.26,0,0,1,170.88,17.82ZM13.34,71.13c.09-.33.19-.65.29-1,3.58-11,6.91-21.86,10.88-32.23a3.42,3.42,0,0,0,.2-1.66,57.7,57.7,0,0,1-1-11.77c0-1.74,0-3.49.09-5.48A37.3,37.3,0,0,1,13,23.82c-3.66,1-7.37,1.8-11.1,2.82A62.41,62.41,0,0,1,4.22,47.8,23.6,23.6,0,0,1,10.77,40a19.93,19.93,0,0,1,7.51-3.36c-.13.73-.2,1.21-.29,1.67C15.3,51,11.87,63,5.81,74.38a3.06,3.06,0,0,0-.31,1.48,39.16,39.16,0,0,1-.3,12c-.06.38-.08.75-.09.91,3.86-2.28,7.5-4.54,11.06-6.31a23.66,23.66,0,0,1,10.37-2.65c-.12-3-.41-6-.43-9s.2-6.36.26-9.72c-3.44,6.46-8.13,8.48-13,10.6A2.57,2.57,0,0,1,13.34,71.13ZM74.87,9.65c-1.57,0-3.13-.23-4.7-.35-4.37-.34-7.91,3.16-9.65,9.39s-2,12.67-1.83,18.93c.07,3.87.39,7.66.65,11.39a49.2,49.2,0,0,0,2.13,11.88c1.25,3.82,3.08,6.67,6.1,7.45,3.57.92,7.09-.16,10.54-2a1.65,1.65,0,0,0,.21-1.11,43.47,43.47,0,0,1-.61-11.4c.06-.9.12-1.8.18-2.8-3.1,3.28-4.48,3.37-7.14,3.72-3.18.42-5.61-1.63-6.69-6A41.56,41.56,0,0,1,63.14,36a16.4,16.4,0,0,1,2.13-7.68c2.49-4,7.91-4.71,11-1.48l1.51,1.58a65.22,65.22,0,0,1,0-19.18A16.81,16.81,0,0,1,74.87,9.65Z" transform="translate(-1.91 -8.74)"/></svg>