<svg id="Layer_1" data-name="Layer 1" xmlns="http://www.w3.org/2000/svg" viewBox="0 0 99.74 204.93"><defs><style>.cls-1{fill:#231f20;}.cls-2{fill:#fff;}</style></defs><title>zachary-tiki-logo</title><path class="cls-1" d="M6.1,16.24S31.2,8,54.18,8c22.28,0,48.72,8,48.72,8L97.48,84S91,101,91.31,105.94s2.43,24.58,1.34,28.93-4.56,29.76-4.56,29.76-.56,6.89,0,10.52S80.24,210,80.24,210H29.58l-9.31-31.94V163.9L15.79,134l1.7-28.09-6.9-23.35Z" transform="translate(-4.63 -6.54)"/><path class="cls-2" d="M80.24,211.46H29.58a1.48,1.48,0,0,1-1.41-1.05l-9.3-31.94a1.45,1.45,0,0,1-.06-.41V164l-4.47-29.76a1.08,1.08,0,0,1,0-.31L16,106.11,9.19,83a1.8,1.8,0,0,1-.06-.32L4.64,16.34a1.45,1.45,0,0,1,1-1.49c.25-.09,25.6-8.31,48.54-8.31,22.24,0,48.88,8,49.15,8a1.45,1.45,0,0,1,1,1.52L98.94,84.16a1.43,1.43,0,0,1-.09.41c-1.79,4.63-6.36,17.46-6.08,21.26.07.91.19,2.32.34,4,.92,10.44,1.83,21.87,1,25.36-1.06,4.23-4.49,29.35-4.53,29.61h0s-.53,6.69,0,10.1c.58,3.74-6.46,30.19-7.88,35.45A1.46,1.46,0,0,1,80.24,211.46Zm-49.56-2.92H79.12c3.94-14.72,7.85-31,7.52-33.16-.58-3.76,0-10.58,0-10.87.15-1.12,3.5-25.62,4.6-30,.83-3.31-.43-17.55-1-24.39-.16-1.73-.28-3.15-.35-4.07-.36-5,5.23-19.82,6.19-22.33l5.31-66.67c-5.27-1.49-27.94-7.59-47.17-7.59-19.81,0-41.51,6.29-46.55,7.83l4.41,65,6.85,23.2a1.4,1.4,0,0,1,.06.5L17.26,134l4.46,29.72a1.62,1.62,0,0,1,0,.22v13.95Z" transform="translate(-4.63 -6.54)"/><path class="cls-2" d="M53.77,156.61a13.26,13.26,0,0,0,6.38-.08c-.3.65-.58,1.23-.83,1.84a23.57,23.57,0,0,0-1.55,7.12c0,.2,0,.39.22.4a3.48,3.48,0,0,0,1.89-.33,3.82,3.82,0,0,0,1.71-2.7,13.88,13.88,0,0,0,0-5.75,2,2,0,0,1,0-.24.52.52,0,0,1,0-.13,58.19,58.19,0,0,0,6.63-1.15c-.47.75-1,1.57-1.49,2.39a16.07,16.07,0,0,0-1.55,3.81c-.63,2.29-1.6,4-3.92,4.79l.93.35A3.59,3.59,0,0,1,64.32,170c.15,1,.22,1.95.39,2.91a22.51,22.51,0,0,0,1.71,4.83c.06.13.11.26.17.4a2.4,2.4,0,0,1,.19.47c-2-.79-4.32-1.85-6.35-1.73,0-.12,0-.18,0-.22a12.34,12.34,0,0,0,.78-5.82,5.25,5.25,0,0,0-.64-2.3,1.67,1.67,0,0,0-1.2-.9c-.42-.07-.85-.06-1.27-.11s-.45.09-.42.46c.11,1.39.18,2.78.37,4.09a16.91,16.91,0,0,0,1.24,4.47c0,.07,0,.14.08.26a13.12,13.12,0,0,0-5.68-.09C55.85,171,56.57,162.41,53.77,156.61Zm-9.92,21.11a25.22,25.22,0,0,1-1-2.86,105.17,105.17,0,0,1-1.62-11.67c-.08-.83-.09-1.64-.11-2.43,0-.11.15-.26.25-.24a6,6,0,0,1,3.57,2l.44.49a21.63,21.63,0,0,1-.37-6.73,21.71,21.71,0,0,1-12.28-4,64.66,64.66,0,0,1,2.09,9.91,3.19,3.19,0,0,1,3.59-2.11c.19.83.38,1.57.51,2.3a35.17,35.17,0,0,1,.46,9.55c-.16,2.2-.41,4.4-.82,6.93-.07.44-.15.88-.24,1.5A8.15,8.15,0,0,1,44,178.09C43.92,177.92,43.88,177.82,43.85,177.72Zm8.39-21a15.33,15.33,0,0,1-6.12-.42c3.38,6.68,3.24,14.19,1.29,20.95a11.07,11.07,0,0,1,5.23-.62C50.28,171.28,50,162.1,52.24,156.72Zm15.4,22.13c1.77.11,3.63.19,5.29,1.38-2.36-10.62-2-16.61,3.46-27.2A16.34,16.34,0,0,1,70,155.19C70.68,162.66,69.31,171.48,67.64,178.85Z" transform="translate(-4.63 -6.54)"/><path class="cls-2" d="M25.65,131.82a60.24,60.24,0,0,1-1.8,11l2.64,23.08.05,7.35c.76,2.7,1.64,6.23,2.32,10.06,1.49,8.35,2.69,13.44,3.66,16.15s1.41,2.61,2.17,2.06a26.72,26.72,0,0,1,8.91-3.3,73.92,73.92,0,0,1,11-1.23,60.91,60.91,0,0,1,10.15,1.23,26.72,26.72,0,0,1,8.91,3.3c.76.55,1.19.65,2.17-2.06s2.16-7.8,3.65-16.15c.69-3.85,1.58-7.4,2.34-10.12l.05-7.29,2.64-23.08a60.24,60.24,0,0,1-1.8-11c-.28-6.18-2.15-9.48-4.88-11.93,0,0-5.17,19.68-23.56,19.68h-.18c-18.39,0-23.56-19.68-23.56-19.68C27.8,122.34,25.93,125.64,25.65,131.82Zm28.53,57.73c-4.51,0-9.84,2.71-9.84,2.71,4-7.42,9.84-7.18,9.84-7.18s5.8-.24,9.84,7.18C64,192.26,58.69,189.55,54.18,189.55ZM30.2,150a2.84,2.84,0,0,1,2.16-1.67,3.24,3.24,0,0,1,1.36.46A36.24,36.24,0,0,0,39.55,151a54.93,54.93,0,0,0,14.63,1.75A54.9,54.9,0,0,0,68.8,151a24.35,24.35,0,0,0,6-2.31,2.48,2.48,0,0,1,1-.42,1.68,1.68,0,0,1,1.09.36A4.6,4.6,0,0,1,78.57,151c1.37,4.16-.71,8.9-1.73,12.9-2.12,8.34,1.16,16.43-1.92,19-2,1.63-8.24.48-11.61-.83a27.14,27.14,0,0,0-9.14-2,27.19,27.19,0,0,0-9.14,2c-3.36,1.31-5.23,2.54-8.11,1.48-3.64-1.33-2.54-9.73-4.66-18.07-1.06-4.14-2.91-8.73-2.7-13.07A5.62,5.62,0,0,1,30.2,150Z" transform="translate(-4.63 -6.54)"/><path class="cls-2" d="M87.26,132c.4-11.94,0-18.87-.4-19.71-1.18,2.52-3.55,5.71-5.37,5.71C81.49,118,85.87,118.34,87.26,132Z" transform="translate(-4.63 -6.54)"/><path class="cls-2" d="M21.35,132c-.39-11.94,0-18.87.41-19.71,1.18,2.52,3.55,5.71,5.37,5.71C27.13,118,22.75,118.34,21.35,132Z" transform="translate(-4.63 -6.54)"/><path class="cls-2" d="M49.73,118.27c-1.3-2.55-4.94-5.18-8-4.2a14.17,14.17,0,0,0-6.45,5,3.35,3.35,0,0,0-.7,2A4.12,4.12,0,0,0,36,123.49c3.82,3.93,8.23,8.08,13.45,10,0,0,1.31.39-3-4.53s-3.17-6.93-2.67-7.43,2.17-.42,4.84,3.25c2.5,3.44,5.14,6.51,5.48,6.89a.08.08,0,0,0,.07,0,.11.11,0,0,0,.08,0c.33-.38,3-3.45,5.47-6.89,2.67-3.67,4.34-3.75,4.84-3.25S66.24,124,61.9,129s-3,4.53-3,4.53c5.23-1.93,9.64-6.08,13.45-10A4.12,4.12,0,0,0,73.75,121a3.35,3.35,0,0,0-.7-2,14.19,14.19,0,0,0-6.44-5c-3-1-6.68,1.65-8,4.2-2.51,4.93-2.16,2.24-2.16,2.24a20,20,0,0,1,4.29-9.63s.83-.63-.1-1.39a55.47,55.47,0,0,1-6.48-6.72h0a55.47,55.47,0,0,1-6.48,6.72c-.93.76-.09,1.39-.09,1.39a20.06,20.06,0,0,1,4.28,9.63S52.24,123.2,49.73,118.27Zm4.45-6.56c.6,0,1.08,3.51,1.08,7.85s-.48,7.84-1.08,7.84-1.08-3.51-1.08-7.84S53.58,111.71,54.18,111.71Z" transform="translate(-4.63 -6.54)"/><path class="cls-2" d="M81.1,95.7A7.43,7.43,0,0,0,77.72,95c-3.42,0-6.77,1.44-10,2.44-.63.2-1.51.41-.66,1a7.81,7.81,0,0,0,1.84.75c4,1.29,9.48,3,13.39.64a2,2,0,0,0,1.16-1.46,1.43,1.43,0,0,0-.11-.61A5,5,0,0,0,81.1,95.7Z" transform="translate(-4.63 -6.54)"/><path class="cls-2" d="M27.18,95.7A7.4,7.4,0,0,1,30.56,95c3.42,0,6.77,1.44,10,2.44.63.2,1.51.41.66,1a8,8,0,0,1-1.84.75c-4,1.29-9.48,3-13.4.64a2,2,0,0,1-1.15-1.46,1.43,1.43,0,0,1,.11-.61A4.87,4.87,0,0,1,27.18,95.7Z" transform="translate(-4.63 -6.54)"/><path class="cls-2" d="M57.44,97.73c.48-7,35.67-33.39,35.67-33.4L93.83,55s-5.32-2.05-12.25-4.36a53.87,53.87,0,0,1-2.34,8.78C76,69,69.3,76.17,67.48,77.15c-.19.11-.73.41-.8,0a1.46,1.46,0,0,1,.22-.78c.2-.45.46-.87.67-1.32.45-1,.85-2,1.27-3,.81-2,1.58-3.92,2.34-5.9.64-1.68,1.26-3.36,1.86-5.06.49-1.4,1-2.81,1.42-4.22.37-1.13.72-2.27,1.06-3.41.25-.87.5-1.74.72-2.62.16-.61.32-1.22.46-1.84h0c-7.94-2.48-16.76-4.8-22-4.8s-14.66,2.41-23,4.94l.42,1.7c.23.88.48,1.75.73,2.62.34,1.14.69,2.28,1.05,3.41.46,1.41.94,2.82,1.43,4.22.6,1.7,1.22,3.38,1.86,5.06.75,2,1.52,3.95,2.34,5.9.42,1,.81,2,1.27,3,.21.45.47.87.67,1.32a1.56,1.56,0,0,1,.22.78c-.07.39-.62.09-.81,0-1.82-1-8.53-8.11-11.75-17.77a55.51,55.51,0,0,1-2.33-8.66C19.86,53,14.53,55,14.53,55l.81,10.48,1.31,4.41-.82,2,.8,10.44,1.44,1.19,4.28,13.17a2.09,2.09,0,0,1,0-.25,5.69,5.69,0,0,1,2.33-4,6.52,6.52,0,0,1,4-1c3.41.11,6.68,1.49,9.86,2.59q5.06,1.77,10.05,3.69c1,.41,0,1-.58,1.26-2.81,1.08-5.62,2.15-8.46,3.13a51.64,51.64,0,0,1-7.1,2,9.15,9.15,0,0,1-5.41-.24,8,8,0,0,1-3.76-3.11,5.79,5.79,0,0,1-.59-1.32l0,2a17.16,17.16,0,0,0,2.86,4.43,7.1,7.1,0,0,0,2.05,1.56,5.63,5.63,0,0,0,3.3.26,20.93,20.93,0,0,0,5-1.55c1.64-.73,3.14-1.71,4.74-2.51,0,0,3.94-2.16,6.31-3.18.7-.3,1.39-.61,2.11-.85l.52-.16a5.5,5.5,0,0,1,.58-.16,2.16,2.16,0,0,1,.56-.08.33.33,0,0,1,.22.08c.34.39-1.49,1.24-1.71,1.36-1.88,1-3.71,2.14-5.5,3.3s-3.53,2.34-5.21,3.63a23.85,23.85,0,0,1-3.23,2.15,9.64,9.64,0,0,1-4.84,1.37,7.24,7.24,0,0,1-4.56-2.35,16.91,16.91,0,0,1-1.94-2.29c2.18,4,1.6,4.54,2.78,6.64,1.46,2.59,2.42,2.59,3.86,2.09s3.81-2.52,6.46-4.53,6.61-4.59,10.5-7a43.79,43.79,0,0,1,6.67-3.51h0a43.79,43.79,0,0,1,6.67,3.51c3.89,2.45,7.84,5,10.5,7s5,4,6.46,4.53,2.41.5,3.86-2.09c1.18-2.1.6-2.67,2.76-6.6a17.88,17.88,0,0,1-1.91,2.25A7.24,7.24,0,0,1,78,111.14a9.63,9.63,0,0,1-4.83-1.37,23.85,23.85,0,0,1-3.23-2.15c-1.68-1.29-3.43-2.47-5.21-3.63s-3.62-2.28-5.5-3.3c-.22-.12-2.05-1-1.72-1.36a.38.38,0,0,1,.23-.08,2.16,2.16,0,0,1,.56.08,5.5,5.5,0,0,1,.58.16l.52.16c.72.24,1.41.55,2.1.85,2.37,1,6.32,3.18,6.32,3.18,1.6.8,3.09,1.78,4.74,2.51a20.93,20.93,0,0,0,5,1.55,5.64,5.64,0,0,0,3.3-.26,7.06,7.06,0,0,0,2-1.56,16.85,16.85,0,0,0,2.86-4.42l0-2.07a6.15,6.15,0,0,1-.6,1.33,8,8,0,0,1-3.77,3.11,9.12,9.12,0,0,1-5.4.24,51.64,51.64,0,0,1-7.1-2c-2.84-1-5.65-2-8.46-3.13-.57-.22-1.63-.85-.58-1.26q5-1.92,10-3.69c3.18-1.1,6.45-2.48,9.86-2.59a6.54,6.54,0,0,1,4,1,5.69,5.69,0,0,1,2.33,4c0,.09,0,.17,0,.26l4.28-13.18,1.45-1.19.79-10.44-.82-2L93,65.44C75.88,92,57.44,97.73,57.44,97.73ZM15.34,65.44l-.09-1.11s35.2,26.44,35.67,33.4C50.92,97.73,32.48,92,15.34,65.44ZM54.18,95.92c-1.33,0-2.4-10.82-2.4-24.17s1.07-24.17,2.4-24.17,2.4,10.82,2.4,24.17S55.51,95.92,54.18,95.92Z" transform="translate(-4.63 -6.54)"/><path class="cls-2" d="M47.6,15.06a8.74,8.74,0,0,0,5.21-.1c-.23,1.24-.48,2.37-.67,3.51a58.77,58.77,0,0,0-.69,8c0,.32.08.38.28.42a10.67,10.67,0,0,0,3.43-.05c.27,0,.28-.22.28-.53a42.11,42.11,0,0,0-1.52-11c0-.09-.05-.19-.1-.42a8.54,8.54,0,0,0,5.12.17c-1.69,9.09-1.77,17.35.11,25.25a10.41,10.41,0,0,0-5.23-.11c.36-1.68.76-3.35,1.07-5.07a40.69,40.69,0,0,0,.52-5.39,7.76,7.76,0,0,0-3.77,0c-.08,0-.19.28-.19.42A35.46,35.46,0,0,0,52.86,40a1.71,1.71,0,0,1,0,.23,10.63,10.63,0,0,0-5.36.29A49.16,49.16,0,0,0,47.6,15.06ZM78.49,43.43A26.33,26.33,0,0,1,77,33.51c0-.35.08-.44.31-.39.89.19,1.49.93,1.64,2.25.12,1,.06,2.07.11,3.09a29.82,29.82,0,0,0,.2,3,4.67,4.67,0,0,0,1.19,2.63,4.16,4.16,0,0,0,3.43,1.45c.23,0,.3-.13.21-.5a16.61,16.61,0,0,1-.45-4.47c0-.68.05-1.36.08-2.08l-.37.11c-1,.33-1.92-.4-2.28-2a10,10,0,0,0-.87-2.86.61.61,0,0,1,0-.14l.64-.1c1.47-.24,2.57-1.27,3.12-3.39a20.39,20.39,0,0,0,.32-8.28,5.82,5.82,0,0,0-2.2-4.08,4.82,4.82,0,0,0-3-.79,17.33,17.33,0,0,1-4.13-.26c-.27-.06-.54-.16-.84-.25.25.89.5,1.67.68,2.48a35.17,35.17,0,0,1,.67,8.52c-.06,2.07-.2,4.08-.37,6a33.9,33.9,0,0,1-1.7,8.48,3.53,3.53,0,0,0-.1.43,10.63,10.63,0,0,1,5.33,1.46ZM77.24,29.07a21.45,21.45,0,0,1,.56-3.22c.55-2,1.9-2.41,3.12-1.89a2.36,2.36,0,0,1,1.42,2.14c.27,2.44-.66,4.44-2.18,4.68a13.48,13.48,0,0,1-2.11,0C77.13,30.45,77.09,30.45,77.24,29.07ZM64.53,34.44a7,7,0,0,1,3.12.45c.07,0,.17.31.16.44-.11,1.07-.22,2.14-.38,3.17-.14.87-.35,1.7-.5,2.47q2.63.39,5.32,1c-.09-.28-.19-.57-.27-.87s-.18-.59-.25-.89A66.06,66.06,0,0,1,69.45,24a27.66,27.66,0,0,1,.47-5.67c.16-.78.37-1.54.58-2.4a17.85,17.85,0,0,1-7.65-.75c.06.28.1.44.13.61.14.7.32,1.39.41,2.1a30.19,30.19,0,0,1,.07,6.44,56.11,56.11,0,0,1-1,6.73,64.26,64.26,0,0,1-2.59,8.89c0,.11-.07.24-.12.42a13,13,0,0,1,5.32.5,28.24,28.24,0,0,1-.63-6.34Zm3-8.28a42.7,42.7,0,0,1,.42,5.5c0,.33-.1.39-.28.42a7.09,7.09,0,0,1-3-.35.47.47,0,0,1-.18-.34,26.27,26.27,0,0,1,1.94-9.06l.1-.21A22.2,22.2,0,0,1,67.56,26.16ZM28.2,38.6c-.06-.75-.07-.8.47-1,.87-.26,1.74-.42,2.6-.64.3-.07.41.06.38.49-.1,1.33-.17,2.65-.31,3.95-.07.7-.23,1.39-.34,2,1.83-.52,3.62-1,5.4-1.36-.2-.56-.43-1.13-.63-1.71a70.39,70.39,0,0,1-3.46-14.56,30.12,30.12,0,0,1-.15-6.66c.07-.72.21-1.43.33-2.26a18.85,18.85,0,0,1-7.78,1.7c.09.29.16.47.21.65.3,1.11.66,2.16.88,3.29A34.45,34.45,0,0,1,26.27,30,55.29,55.29,0,0,1,24.33,43c-.27,1-.56,2-.84,2.86,1.89-.7,3.73-1.32,5.58-1.89A25.83,25.83,0,0,1,28.2,38.6Zm1.95-11.8a30.09,30.09,0,0,1,1.36,6.78c0,.24,0,.42-.18.54a7.66,7.66,0,0,1-3.11.89c-.07,0-.19-.27-.19-.42.09-1.84.13-3.7.26-5.58a18.12,18.12,0,0,1,.93-4.57C29.56,25.29,29.89,26,30.15,26.8Zm56.32-7.9a1.9,1.9,0,0,0,0,.3,26,26,0,0,1,.42,7.55c-.1,1.26-.24,2.48-.31,3.72a9.35,9.35,0,0,0,.64,4.07c1,2.45,3.17,3.49,4.69,2.83a7.78,7.78,0,0,0,1.39-1.11,1.09,1.09,0,0,1,0,.2c-.22,1.23-.36,2.49-.62,3.63a2.08,2.08,0,0,1-1.4,1.74c-.94.28-1.9-.29-2.85-.79a5.32,5.32,0,0,1-2.17-2c0,.16,0,.23,0,.3s0,.17,0,.26a12.33,12.33,0,0,1-.37,5.08c-.17.59-.18.6.32,1a11.09,11.09,0,0,0,5.4,2.62c1.84.22,3-.76,3.4-3.11a27.81,27.81,0,0,0,.24-5.79,51.61,51.61,0,0,1,1-10.71c.36-2,.87-3.88,1.34-5.95a9.68,9.68,0,0,1-4.92-1.79.58.58,0,0,0,0,.2c0,.16.06.32.1.47a25.33,25.33,0,0,1,.42,8.78,7.49,7.49,0,0,1-.92,3.06c-.86,1.34-2.22.73-2.72-1.22a7.44,7.44,0,0,1-.22-1.63A22.18,22.18,0,0,1,90.9,22c.18-.46.38-.89.61-1.42A13,13,0,0,1,86.47,18.9Zm-70,23.68c0-.14.08-.29.13-.43,1.58-4.88,3.06-9.71,4.83-14.31a1.59,1.59,0,0,0,.09-.74,26.17,26.17,0,0,1-.46-5.23c0-.77,0-1.55,0-2.43a16.45,16.45,0,0,1-4.78,2.13c-1.63.44-3.27.79-4.93,1.25a27.85,27.85,0,0,1,1,9.4,10.38,10.38,0,0,1,2.91-3.49,8.78,8.78,0,0,1,3.33-1.49c-.06.33-.09.54-.13.74A59.82,59.82,0,0,1,13.14,44a1.39,1.39,0,0,0-.14.65A17.63,17.63,0,0,1,12.87,50c0,.16,0,.33,0,.4,1.71-1,3.33-2,4.91-2.8a10.37,10.37,0,0,1,4.61-1.18c-.05-1.34-.18-2.65-.19-4s.09-2.83.12-4.32c-1.53,2.87-3.62,3.77-5.79,4.71A1.93,1.93,0,0,1,16.49,42.58ZM43.82,15.27c-.69,0-1.39-.1-2.09-.15-1.94-.16-3.51,1.4-4.29,4.17a29.27,29.27,0,0,0-.81,8.41c0,1.72.17,3.4.29,5.06A21.71,21.71,0,0,0,37.87,38c.55,1.7,1.37,3,2.71,3.31a6.43,6.43,0,0,0,4.68-.89.77.77,0,0,0,.09-.49,19.72,19.72,0,0,1-.27-5.06c0-.4.05-.81.08-1.25A4.07,4.07,0,0,1,42,35.3c-1.41.19-2.49-.72-3-2.64A18.42,18.42,0,0,1,38.61,27a7.26,7.26,0,0,1,.94-3.41,3.11,3.11,0,0,1,4.87-.66l.68.7a29,29,0,0,1,0-8.52A7,7,0,0,1,43.82,15.27Z" transform="translate(-4.63 -6.54)"/></svg>